<svg id="Слой_1" data-name="Слой 1" xmlns="http://www.w3.org/2000/svg" viewBox="0 0 16 16"><defs><style>.cls-1{fill:#232323;}.cls-2{fill:#ffbb04;}</style></defs><rect class="cls-1" width="16" height="16" rx="1.64"/><path class="cls-2" d="M12.29,8.9a2.84,2.84,0,0,1,.54,1.76,2.73,2.73,0,0,1-.5,1.62,3.32,3.32,0,0,1-1.43,1.08,5.62,5.62,0,0,1-2.18.38H4.36a1.41,1.41,0,0,1-1-.35,1.34,1.34,0,0,1-.36-1V3.82a1.33,1.33,0,0,1,.36-1,1.41,1.41,0,0,1,1-.36h4.2a4.79,4.79,0,0,1,2.9.8,2.52,2.52,0,0,1,1.07,2.13,2.59,2.59,0,0,1-.47,1.53,2.82,2.82,0,0,1-1.33,1A3,3,0,0,1,12.29,8.9ZM5.9,6.9H8.05A2.38,2.38,0,0,0,9.3,6.64a.9.9,0,0,0,.39-.82A1,1,0,0,0,9.3,5a2.27,2.27,0,0,0-1.25-.27H5.9Zm3.73,4.34a1.05,1.05,0,0,0,.39-.92,1.05,1.05,0,0,0-.39-.92,2.18,2.18,0,0,0-1.28-.28H5.9v2.4H8.35A2.18,2.18,0,0,0,9.63,11.24Z"/></svg>