<?xml version="1.0" encoding="UTF-8"?>
<svg xmlns="http://www.w3.org/2000/svg" xmlns:xlink="http://www.w3.org/1999/xlink" width="24pt" height="24pt" viewBox="0 0 24 24" version="1.1">
<g id="surface1">
<path style=" stroke:none;fill-rule:nonzero;fill:rgb(0%,0%,0%);fill-opacity:1;" d="M 12.003906 6.609375 C 8.597656 6.609375 5.851562 9.015625 5.851562 11.996094 C 5.851562 14.976562 8.597656 17.382812 12.003906 17.382812 C 15.414062 17.382812 18.160156 14.976562 18.160156 11.996094 C 18.160156 9.015625 15.414062 6.609375 12.003906 6.609375 Z M 12.003906 15.496094 C 9.804688 15.496094 8.003906 13.925781 8.003906 11.996094 C 8.003906 10.0625 9.796875 8.492188 12.003906 8.492188 C 14.210938 8.492188 16.007812 10.0625 16.007812 11.996094 C 16.007812 13.925781 14.207031 15.496094 12.003906 15.496094 Z M 19.847656 6.390625 C 19.847656 7.085938 19.207031 7.644531 18.414062 7.644531 C 17.613281 7.644531 16.976562 7.082031 16.976562 6.390625 C 16.976562 5.695312 17.621094 5.132812 18.414062 5.132812 C 19.207031 5.132812 19.847656 5.695312 19.847656 6.390625 Z M 23.925781 7.664062 C 23.832031 5.980469 23.394531 4.492188 21.984375 3.261719 C 20.582031 2.035156 18.878906 1.648438 16.957031 1.566406 C 14.972656 1.46875 9.03125 1.46875 7.050781 1.566406 C 5.132812 1.644531 3.429688 2.03125 2.019531 3.257812 C 0.609375 4.484375 0.175781 5.976562 0.0820312 7.660156 C -0.03125 9.394531 -0.03125 14.59375 0.0820312 16.328125 C 0.171875 18.007812 0.609375 19.5 2.019531 20.726562 C 3.429688 21.957031 5.125 22.339844 7.050781 22.425781 C 9.03125 22.523438 14.972656 22.523438 16.957031 22.425781 C 18.878906 22.34375 20.582031 21.960938 21.984375 20.726562 C 23.390625 19.5 23.828125 18.007812 23.925781 16.328125 C 24.039062 14.59375 24.039062 9.398438 23.925781 7.664062 Z M 21.363281 18.1875 C 20.945312 19.105469 20.136719 19.8125 19.082031 20.183594 C 17.5 20.734375 13.75 20.605469 12.003906 20.605469 C 10.257812 20.605469 6.503906 20.726562 4.929688 20.183594 C 3.878906 19.820312 3.070312 19.109375 2.644531 18.1875 C 2.019531 16.804688 2.164062 13.523438 2.164062 11.996094 C 2.164062 10.46875 2.023438 7.179688 2.644531 5.804688 C 3.0625 4.882812 3.875 4.175781 4.929688 3.804688 C 6.507812 3.257812 10.257812 3.382812 12.003906 3.382812 C 13.75 3.382812 17.507812 3.261719 19.082031 3.804688 C 20.132812 4.171875 20.941406 4.878906 21.363281 5.804688 C 21.992188 7.1875 21.847656 10.46875 21.847656 11.996094 C 21.847656 13.523438 21.992188 16.808594 21.363281 18.1875 Z M 21.363281 18.1875 "/>
</g>
</svg>
