<?xml version="1.0" encoding="UTF-8"?>
<svg xmlns="http://www.w3.org/2000/svg" xmlns:xlink="http://www.w3.org/1999/xlink" width="21pt" height="21pt" viewBox="0 0 21 21" version="1.1">
<g id="surface1">
<path style=" stroke:none;fill-rule:nonzero;fill:rgb(0%,0%,0%);fill-opacity:1;" d="M 18.839844 6.222656 C 18.855469 6.410156 18.855469 6.597656 18.855469 6.78125 C 18.855469 12.472656 14.523438 19.027344 6.609375 19.027344 C 4.171875 19.027344 1.90625 18.320312 0 17.097656 C 0.347656 17.136719 0.679688 17.148438 1.039062 17.148438 C 3.050781 17.148438 4.902344 16.46875 6.382812 15.308594 C 4.492188 15.269531 2.90625 14.03125 2.359375 12.324219 C 2.625 12.367188 2.890625 12.390625 3.171875 12.390625 C 3.558594 12.390625 3.945312 12.339844 4.304688 12.246094 C 2.332031 11.847656 0.851562 10.113281 0.851562 8.023438 L 0.851562 7.96875 C 1.425781 8.289062 2.09375 8.488281 2.796875 8.515625 C 1.640625 7.742188 0.878906 6.421875 0.878906 4.929688 C 0.878906 4.128906 1.09375 3.398438 1.464844 2.757812 C 3.585938 5.371094 6.769531 7.074219 10.339844 7.261719 C 10.273438 6.941406 10.234375 6.609375 10.234375 6.277344 C 10.234375 3.902344 12.152344 1.972656 14.539062 1.972656 C 15.777344 1.972656 16.894531 2.492188 17.683594 3.332031 C 18.65625 3.144531 19.585938 2.785156 20.414062 2.292969 C 20.09375 3.292969 19.414062 4.128906 18.523438 4.664062 C 19.386719 4.570312 20.226562 4.332031 21 3.996094 C 20.414062 4.851562 19.679688 5.609375 18.839844 6.222656 Z M 18.839844 6.222656 "/>
</g>
</svg>
